<svg width="34" height="35" viewBox="0 0 34 35" fill="none" xmlns="http://www.w3.org/2000/svg">
<path d="M34 17.7578C34 8.369 26.3888 0.757812 17 0.757812C7.61118 0.757812 0 8.369 0 17.7578C0 26.243 6.21669 33.276 14.3438 34.5512V22.6719H10.0273V17.7578H14.3438V14.0125C14.3438 9.75187 16.8818 7.39844 20.7649 7.39844C22.6249 7.39844 24.5703 7.7305 24.5703 7.7305V11.9141H22.4266C20.3149 11.9141 19.6562 13.2245 19.6562 14.5689V17.7578H24.3711L23.6174 22.6719H19.6562V34.5512C27.7833 33.276 34 26.243 34 17.7578Z" fill="#1877F2"/>
<path d="M23.6174 22.6719L24.3711 17.7578H19.6562V14.5689C19.6562 13.2245 20.3148 11.9141 22.4266 11.9141H24.5703V7.7305C24.5703 7.7305 22.6249 7.39844 20.7649 7.39844C16.8817 7.39844 14.3437 9.75187 14.3437 14.0125V17.7578H10.0273V22.6719H14.3437V34.5512C15.2093 34.687 16.0964 34.7578 17 34.7578C17.9036 34.7578 18.7907 34.687 19.6562 34.5512V22.6719H23.6174Z" fill="white"/>
</svg>
