<svg width="50" height="26" viewBox="0 0 50 26" fill="none" xmlns="http://www.w3.org/2000/svg">
<path d="M33.8235 9.96081C34.559 10.5068 34.7484 11.0265 34.7484 12.4907V17.4524H33.127L33.1295 12.5527C33.1295 12.1162 33.1414 11.7205 32.9399 11.4201C32.7516 11.1375 32.3771 11.0218 32.1089 11.0315C31.5045 11.0575 31.1778 11.4867 31.1778 11.8753V17.4524H29.5552V6.76445H31.1778V10.0431C31.5236 9.76773 32.0207 9.60069 32.5394 9.59351C33.0175 9.58658 33.5097 9.72832 33.8235 9.96081ZM20.6341 13.6315C20.6341 12.5836 20.5937 12.1472 20.5925 12.1388C20.5841 11.5536 20.279 10.9633 19.6138 10.9633C18.9496 10.9633 18.6432 11.5536 18.6348 12.1425C18.6348 12.1472 18.5944 12.5836 18.5944 13.6315C18.5944 14.6781 18.6336 15.0323 18.6348 15.037V15.0357C18.6648 15.6021 18.9389 16.2591 19.6138 16.2591C20.2896 16.2591 20.5377 15.6439 20.5937 15.0632C20.6019 14.9716 20.6341 14.6781 20.6341 13.6315ZM22.2483 13.6315C22.2483 14.2526 22.2151 14.7735 22.2079 14.8915C22.1018 16.5666 21.1325 17.6276 19.6113 17.6276C18.0901 17.6276 17.1195 16.5845 17.0147 14.8928C17.0063 14.7641 16.9671 14.2526 16.9731 13.6315C16.9813 12.7792 17.0041 12.512 17.0182 12.3678C17.184 10.5534 18.1032 9.59475 19.6113 9.59475C20.676 9.59475 21.9717 10.0847 22.2032 12.3703C22.2245 12.5859 22.2483 13.3502 22.2483 13.6315ZM37.4548 12.6694H39.4778C39.4801 12.512 39.4647 12.3631 39.4503 12.1425C39.4218 11.7192 39.2394 10.9573 38.461 10.9633C37.8052 10.9695 37.5192 11.4986 37.4739 12.1388C37.4667 12.2414 37.4667 12.3165 37.4548 12.6694ZM41.0134 14.8105C40.9096 16.5845 39.9272 17.6276 38.4573 17.6276C36.9849 17.6276 36.0027 16.556 35.9048 14.8928C35.8979 14.7735 35.8619 14.2526 35.8619 13.6315C35.8619 12.7576 35.8894 12.5299 35.906 12.369C36.085 10.5449 36.998 9.59475 38.4573 9.59475C39.2191 9.59475 39.8617 9.89041 40.3158 10.4508C40.7069 10.9348 40.9646 11.6847 41.0134 12.369C41.0454 12.8149 41.0504 13.0258 41.0538 13.1547C41.0658 13.4776 41.0588 14.0166 41.0588 14.0166H37.4416C37.4404 14.6722 37.4739 14.8655 37.4833 15.0407C37.5286 15.6474 37.7861 16.2591 38.4573 16.2591C39.2476 16.2591 39.3978 15.4519 39.4419 15.0752C39.46 14.9297 39.4563 14.8105 39.4563 14.8105H41.0134ZM12.171 8.21653V11.2352H13.0161C13.9926 11.2352 14.1988 10.4151 14.2454 9.94642C14.2501 9.89041 14.2523 9.84036 14.2523 9.69736C14.2523 9.57343 14.2454 9.50775 14.2454 9.44926C14.2251 8.66017 13.772 8.21653 12.9376 8.21653H12.171ZM16.0933 17.4561H14.492C14.492 17.4561 14.4253 17.1543 14.4109 16.8016L14.2454 14.3193C14.1572 13.0545 13.5765 12.6027 13.0627 12.6027H12.171L12.1698 17.4524H10.5685V6.84921L13.0471 6.85045C14.5636 6.86583 15.8524 7.59422 15.8608 9.6686C15.8655 11.0315 15.2979 11.6847 14.8593 11.9494C15.4672 12.3033 15.7726 12.9936 15.8452 14.1691C15.8452 14.1691 16.0122 16.7944 16.0122 16.7931C16.0241 17.1639 16.0933 17.4561 16.0933 17.4561ZM26.9396 14.7378C26.9326 14.8558 26.9242 14.9619 26.9183 15.037C26.8729 15.6271 26.6642 16.2591 25.9393 16.2591C25.2647 16.2591 24.9975 15.5748 24.9487 15.0729C24.919 14.7663 24.9261 14.5316 24.92 13.6315C24.913 12.5836 24.9475 12.3143 24.9618 12.1425C25.0191 11.482 25.2754 10.9683 25.9393 10.9633C26.6238 10.9586 26.9098 11.5536 26.9183 12.1388C26.9183 12.1437 26.9326 12.2855 26.9445 12.5968H28.5468C28.5431 12.4882 28.5371 12.4 28.5336 12.3462C28.3513 10.1313 27.0028 9.59475 25.9383 9.59475C24.429 9.59475 23.5098 10.5534 23.344 12.3678C23.3308 12.512 23.307 12.7792 23.2986 13.6315C23.2939 14.2526 23.3333 14.7641 23.3417 14.8928C23.4453 16.5845 24.4171 17.6229 25.9383 17.6276C27.5143 17.6336 28.3822 16.6715 28.5336 14.8915C28.5384 14.8261 28.548 14.7832 28.5431 14.7378H26.9396ZM11.8453 1.31031H38.1963L48.2714 13.0987L38.1988 24.7284H11.8443L1.72964 13.058L11.8453 1.31031ZM38.8317 0H11.2089L0 13.0186L11.2089 25.9539H38.8317L50 13.0605L38.8317 0Z" fill="#0066CC"/>
</svg>
