<svg width="35" height="34" viewBox="0 0 35 34" fill="none" xmlns="http://www.w3.org/2000/svg">
<g clip-path="url(#clip0)">
<path d="M17.5 34C26.8888 34 34.5 26.3888 34.5 17C34.5 7.61116 26.8888 0 17.5 0C8.11116 0 0.5 7.61116 0.5 17C0.5 26.3888 8.11116 34 17.5 34Z" fill="url(#paint0_radial)"/>
<mask id="mask0" style="mask-type:alpha" maskUnits="userSpaceOnUse" x="5" y="4" width="25" height="26">
<path d="M5.10095 4.6311H29.8926V29.1749H5.10095V4.6311Z" fill="white"/>
</mask>
<g mask="url(#mask0)">
<path d="M17.4968 4.6311C14.1303 4.6311 13.7082 4.6452 12.3861 4.70498C11.0667 4.76455 10.1656 4.97202 9.37707 5.2754C8.56199 5.58898 7.87066 6.0086 7.18159 6.6908C6.49238 7.37313 6.06859 8.05745 5.75182 8.86439C5.44532 9.64504 5.2358 10.537 5.17559 11.8434C5.11524 13.1523 5.10107 13.5701 5.10107 16.903C5.10107 20.2358 5.11531 20.6537 5.17559 21.9627C5.2358 23.2688 5.44532 24.161 5.75182 24.9416C6.06859 25.7485 6.49238 26.4329 7.18159 27.1152C7.87073 27.7974 8.56206 28.217 9.37714 28.5307C10.1657 28.834 11.0667 29.0415 12.3861 29.1011C13.7082 29.1608 14.1304 29.1749 17.4969 29.1749C20.8635 29.1749 21.2855 29.1608 22.6077 29.1011C23.9271 29.0415 24.8282 28.834 25.6167 28.5307C26.4318 28.217 27.1231 27.7974 27.8122 27.1152C28.5014 26.433 28.9252 25.7486 29.242 24.9416C29.5484 24.161 29.758 23.2689 29.8182 21.9627C29.8785 20.6537 29.8927 20.2358 29.8927 16.903C29.8927 13.5701 29.8785 13.1523 29.8182 11.8434C29.7579 10.5371 29.5484 9.64504 29.242 8.86446C28.9252 8.05752 28.5014 7.37313 27.8122 6.69087C27.1231 6.00867 26.4318 5.58905 25.6167 5.27547C24.8282 4.9721 23.9271 4.76462 22.6077 4.70505C21.2855 4.64527 20.8634 4.6311 17.4968 4.6311ZM17.4968 6.84231C20.8067 6.84231 21.1987 6.85477 22.5058 6.91385C23.7144 6.96846 24.3707 7.16835 24.8075 7.33644C25.3862 7.55907 25.7991 7.82498 26.2329 8.25437C26.6666 8.68383 26.9352 9.09261 27.1601 9.66544C27.3298 10.0979 27.5318 10.7476 27.587 11.9441C27.6465 13.2382 27.6592 13.6263 27.6592 16.903C27.6592 20.1798 27.6465 20.568 27.587 21.8619C27.5318 23.0585 27.3298 23.7083 27.1601 24.1407C26.9352 24.7135 26.6666 25.1223 26.2329 25.5517C25.7991 25.9812 25.3861 26.2471 24.8075 26.4697C24.3707 26.6377 23.7144 26.8377 22.5058 26.8922C21.1989 26.9513 20.8069 26.9638 17.4968 26.9638C14.1867 26.9638 13.7948 26.9513 12.4879 26.8922C11.2793 26.8377 10.6229 26.6377 10.1861 26.4697C9.60749 26.2471 9.19453 25.9812 8.76075 25.5517C8.32704 25.1223 8.05837 24.7135 7.83347 24.1407C7.66375 23.7083 7.46181 23.0585 7.40663 21.862C7.34699 20.568 7.33438 20.1799 7.33438 16.9031C7.33438 13.6264 7.34699 13.2383 7.40663 11.9442C7.46181 10.7477 7.66375 10.0979 7.83347 9.66551C8.05844 9.09261 8.32711 8.68376 8.76082 8.25437C9.19453 7.82491 9.60756 7.559 10.1861 7.33637C10.623 7.16828 11.2793 6.96839 12.4879 6.91378C13.795 6.85477 14.187 6.84231 17.4968 6.84231Z" fill="white"/>
</g>
<path d="M17.5008 21.0041C15.2328 21.0041 13.3942 19.1661 13.3942 16.8991C13.3942 14.632 15.2328 12.7941 17.5008 12.7941C19.7688 12.7941 21.6074 14.632 21.6074 16.8991C21.6074 19.1661 19.7688 21.0041 17.5008 21.0041ZM17.5008 10.5752C14.0068 10.5752 11.1744 13.4065 11.1744 16.8991C11.1744 20.3917 14.0069 23.223 17.5008 23.223C20.9947 23.223 23.8272 20.3917 23.8272 16.8991C23.8272 13.4065 20.9948 10.5752 17.5008 10.5752Z" fill="white"/>
<path d="M25.5985 10.3274C25.5985 11.1492 24.9187 11.8153 24.0802 11.8153C23.2416 11.8153 22.5618 11.1492 22.5618 10.3274C22.5618 9.50554 23.2416 8.83936 24.0802 8.83936C24.9187 8.83943 25.5985 9.50554 25.5985 10.3274Z" fill="white"/>
</g>
<defs>
<radialGradient id="paint0_radial" cx="0" cy="0" r="1" gradientUnits="userSpaceOnUse" gradientTransform="translate(10.1002 32.7994) scale(36.3706)">
<stop stop-color="#FED576"/>
<stop offset="0.3129" stop-color="#F86F30"/>
<stop offset="0.5627" stop-color="#C93188"/>
<stop offset="1" stop-color="#515FCF"/>
</radialGradient>
<clipPath id="clip0">
<rect width="34" height="34" fill="white" transform="translate(0.5)"/>
</clipPath>
</defs>
</svg>
