<svg width="34" height="34" viewBox="0 0 34 34" fill="none" xmlns="http://www.w3.org/2000/svg">
<path d="M17 34C26.3888 34 34 26.3888 34 17C34 7.61116 26.3888 0 17 0C7.61116 0 0 7.61116 0 17C0 26.3888 7.61116 34 17 34Z" fill="#2867B2"/>
<path d="M27 25.9998H23.0656V19.8282C23.0656 18.3562 23.0388 16.4628 21.0188 16.4628C18.9709 16.4628 18.6561 18.0662 18.6561 19.7212V25.9998H14.7211V13.3085H18.4981V15.0425H18.5508C19.0768 14.0447 20.3615 12.9926 22.2762 12.9926C26.2636 12.9926 26.9998 15.6214 26.9998 19.0381V25.9998H27ZM10.2839 11.5737C9.02177 11.5737 8 10.549 8 9.28608C8.00028 8.0251 9.02227 7 10.2839 7C11.5429 7 12.5658 8.0246 12.5658 9.28608C12.5658 10.549 11.5429 11.5737 10.2839 11.5737ZM8.31407 26V13.3085H12.2519L12.2522 26H8.31407Z" fill="white"/>
</svg>
