<svg width="167" height="28" viewBox="0 0 167 28" fill="none" xmlns="http://www.w3.org/2000/svg">
<path d="M20.5809 0.500671L19.1538 0.614155L17.7529 0.500671C17.6313 0.495344 17.5181 0.549582 17.4545 0.650807L1.01952 27.0092C0.953988 27.1142 0.954629 27.2474 1.02138 27.3518C1.08063 27.4448 1.18314 27.5 1.29187 27.5C1.30471 27.5 1.31787 27.4994 1.33103 27.4975L3.14607 27.275L4.84788 27.4966C4.98146 27.5129 5.11619 27.4436 5.17697 27.3204C5.70415 26.2517 6.58083 24.6147 7.78371 22.4537C8.46128 21.2216 8.99821 20.2523 9.39406 19.5468H17.7632C18.0362 21.0095 18.1958 21.8792 18.2437 22.1534C18.2769 22.3481 18.3891 23.3826 18.7329 27.2073C18.748 27.3727 18.8865 27.4994 19.0526 27.4994C19.104 27.4994 19.2604 27.4994 20.447 27.3844C21.2127 27.3101 21.8521 27.2725 22.3472 27.2725C22.4012 27.2725 22.7011 27.29 24.3228 27.4527C24.6396 27.484 25.0464 27.4994 25.5667 27.4994C25.6623 27.4994 25.7529 27.4568 25.8136 27.3834C25.8748 27.3098 25.8998 27.2129 25.882 27.1192L20.9206 0.761402C20.8905 0.600355 20.7416 0.490337 20.5809 0.500671ZM11.3203 16.6326L16.0005 9.00307L17.2721 16.6326H11.3203ZM44.7234 26.5601C44.7544 26.6243 44.7632 26.6967 44.7482 26.7666L44.6541 27.2073C44.6228 27.3552 44.4918 27.4611 44.3404 27.4611C43.9941 27.4611 43.5321 27.4288 42.9673 27.3652C42.2596 27.2844 42.0653 27.2725 42.0124 27.2725C41.6886 27.2725 41.24 27.3038 40.6797 27.3652C39.8883 27.4511 39.6974 27.4611 39.6228 27.4611C39.5012 27.4611 39.39 27.3922 39.3357 27.2835L34.7445 18.0721L32.7969 27.2069C32.7656 27.3552 32.6346 27.4611 32.4832 27.4611C32.1362 27.4611 31.6743 27.4288 31.1101 27.3652C30.4024 27.2844 30.2081 27.2725 30.1551 27.2725C29.8314 27.2725 29.3829 27.3038 28.8225 27.3652C28.0392 27.4502 27.8458 27.4611 27.765 27.4611C27.6682 27.4611 27.5766 27.4176 27.5155 27.3421C27.4547 27.2668 27.4309 27.1681 27.4509 27.0734L32.0425 5.4658C32.0741 5.31759 32.2049 5.21168 32.3566 5.21168C32.6797 5.21168 33.1291 5.23857 33.6926 5.29217C34.3712 5.35552 34.6066 5.369 34.6846 5.369C34.9648 5.369 35.3889 5.34294 35.9445 5.29191C36.5256 5.238 36.8955 5.21168 37.0748 5.21168C37.1716 5.21168 37.2634 5.25552 37.3242 5.33075C37.3854 5.4063 37.4089 5.50502 37.3885 5.59963L35.4948 14.4462C38.849 11.312 42.0525 8.23987 45.0271 5.30411C45.0932 5.23857 45.186 5.20789 45.2775 5.21258C45.5542 5.23421 45.8589 5.26617 46.1899 5.30879C46.4979 5.34891 46.7434 5.369 46.9192 5.369C47.2599 5.369 47.5476 5.35392 47.7742 5.32478C48.0133 5.29345 48.2794 5.25738 48.5718 5.21508C48.6759 5.19627 48.7841 5.23767 48.8561 5.31759C48.9279 5.39686 48.9552 5.50688 48.9291 5.61093L48.8658 5.86293C48.8495 5.92718 48.8138 5.98514 48.7633 6.0284L42.4417 11.4461L38.9471 14.5872L44.7234 26.5601ZM67.2393 5.31759C67.3111 5.39686 67.3383 5.50688 67.3123 5.61093L67.2491 5.86293C67.2327 5.92718 67.197 5.98514 67.1465 6.0284L60.8255 11.4459L57.3303 14.5872L63.1072 26.5601C63.1383 26.6243 63.147 26.697 63.132 26.7669L63.0373 27.2076C63.0057 27.3555 62.875 27.4611 62.7236 27.4611C62.3773 27.4611 61.9153 27.4288 61.3505 27.3652C60.6171 27.2816 60.4388 27.2725 60.3962 27.2725C60.0718 27.2725 59.6233 27.3038 59.0635 27.3652C58.2803 27.4502 58.0869 27.4611 58.0061 27.4611C57.8844 27.4611 57.7732 27.3922 57.7189 27.2835L53.1277 18.0721L51.1801 27.2069C51.1487 27.3552 51.0177 27.4611 50.8664 27.4611C50.5201 27.4611 50.0581 27.4288 49.4933 27.3652C48.7599 27.2816 48.5815 27.2725 48.5389 27.2725C48.2148 27.2725 47.766 27.3038 47.2057 27.3652C46.4225 27.4502 46.229 27.4611 46.1482 27.4611C46.0513 27.4611 45.9599 27.4176 45.8987 27.3421C45.8379 27.2668 45.8141 27.1681 45.8342 27.0734L50.4264 5.4658C50.458 5.31759 50.5887 5.21168 50.7404 5.21168C51.0638 5.21168 51.5129 5.23857 52.0759 5.29217C52.7544 5.35552 52.9898 5.369 53.0678 5.369C53.348 5.369 53.7721 5.34294 54.3278 5.29191C54.9094 5.238 55.2793 5.21168 55.4579 5.21168C55.5548 5.21168 55.6466 5.25552 55.7074 5.33075C55.7685 5.4063 55.792 5.50502 55.7717 5.59963L53.878 14.4462C57.2322 11.312 60.4356 8.23987 63.4103 5.30411C63.4767 5.23857 63.5683 5.20789 63.6607 5.21258C63.9378 5.23421 64.2427 5.26617 64.5731 5.30879C64.8812 5.34891 65.1265 5.369 65.303 5.369C65.6434 5.369 65.9311 5.35392 66.158 5.32446C66.3971 5.29345 66.6626 5.25738 66.955 5.21508C67.0597 5.19627 67.1672 5.23767 67.2393 5.31759ZM88.0076 5.71658C85.3993 9.22682 83.0932 12.3629 81.1532 15.037C78.9254 18.1012 77.2875 20.4083 76.2839 21.8946C74.9343 23.8901 73.8073 25.7044 72.9335 27.2878C72.8758 27.3928 72.7667 27.4536 72.6526 27.4536C72.6138 27.4536 72.5749 27.4468 72.5373 27.4323C71.9882 27.2204 71.1758 27.2148 69.8795 27.4486C69.7485 27.4712 69.62 27.4141 69.5504 27.3029C69.4809 27.1919 69.4859 27.0493 69.5633 26.9434L73.6481 21.347C73.2143 20.0761 72.6413 18.5137 71.9443 16.7C71.6309 15.9045 70.8963 14.0256 69.7429 11.065L67.6048 5.6504C67.5634 5.54635 67.5797 5.4285 67.6471 5.33922C67.7147 5.24987 67.8239 5.20539 67.9351 5.21322C69.1753 5.33736 70.2227 5.40033 71.0486 5.40033C71.97 5.40033 72.7975 5.33607 73.5083 5.20911C73.6725 5.17939 73.8292 5.27965 73.8738 5.43826C74.5382 7.80551 75.1399 9.8117 75.6621 11.4004C76.198 12.9885 76.7829 14.5236 77.4035 15.97C78.4089 14.512 79.1586 13.4135 79.6512 12.6754C79.86 12.361 80.6147 11.2092 81.9135 9.21777C83.7527 6.42239 84.293 5.5771 84.4234 5.36021C84.4854 5.25648 84.5926 5.19788 84.7217 5.20507L86.1371 5.30725L86.4913 5.30629C86.8925 5.30629 87.2987 5.27336 87.6985 5.20821C87.8258 5.1869 87.9568 5.2464 88.0239 5.35835C88.0922 5.46991 88.0853 5.61157 88.0076 5.71658ZM94.5423 16.3358C94.6032 16.411 94.627 16.51 94.6069 16.6047L93.7356 20.6566C93.7036 20.8045 93.5726 20.9101 93.4216 20.9101H83.9539C83.8567 20.9101 83.7652 20.8662 83.7044 20.7907C83.6436 20.7155 83.6197 20.6165 83.6398 20.5218L84.5111 16.4699C84.5431 16.322 84.6741 16.2164 84.8252 16.2164H94.2929C94.39 16.2164 94.4815 16.2602 94.5423 16.3358ZM120.627 1.22843L115.098 27.2452C115.067 27.3935 114.936 27.4994 114.784 27.4994C114.418 27.4994 113.89 27.4606 113.215 27.3837C112.402 27.2919 112.075 27.2725 111.943 27.2725C111.576 27.2725 111.046 27.3101 110.37 27.384C109.421 27.4875 109.193 27.4994 109.104 27.4994C109.007 27.4994 108.916 27.4558 108.854 27.3806C108.793 27.3057 108.77 27.2069 108.79 27.1123L111.371 14.8505C110.109 15.5281 108.812 16.0644 107.509 16.4471C105.983 16.8959 104.519 17.1234 103.158 17.1234C101.102 17.1234 99.394 16.6319 98.0815 15.6629C96.7388 14.6715 96.0581 13.2627 96.0581 11.4756C96.0581 11.0256 96.1238 10.4701 96.2536 9.82518L98.1097 1.09492C98.141 0.946649 98.272 0.840739 98.4237 0.840739C98.744 0.840739 99.2035 0.878674 99.8278 0.956662C100.415 1.03035 100.873 1.06764 101.188 1.06764C101.479 1.06764 101.95 1.03003 102.59 0.956405C103.264 0.878674 103.759 0.840739 104.104 0.840739C104.201 0.840739 104.293 0.884579 104.354 0.959807C104.414 1.03536 104.438 1.13408 104.418 1.22875L102.752 9.00653C102.701 9.18985 102.666 9.39198 102.645 9.62832C102.619 9.88315 102.607 10.0925 102.607 10.2608C102.607 11.2948 102.917 12.025 103.556 12.4939C104.215 12.9787 105.113 13.2244 106.225 13.2244C107.152 13.2244 108.154 13.0699 109.203 12.7653C110.211 12.4732 111.177 12.0689 112.077 11.5631L114.318 1.0946C114.35 0.946328 114.481 0.840739 114.632 0.840739C114.953 0.840739 115.412 0.878674 116.037 0.956662C116.624 1.03035 117.069 1.06764 117.359 1.06764C117.675 1.06764 118.16 1.03003 118.799 0.956405C119.473 0.878674 119.968 0.840739 120.313 0.840739C120.409 0.840739 120.501 0.884322 120.562 0.959807C120.623 1.03504 120.647 1.13376 120.627 1.22843ZM135.079 14.0814C135.149 14.1732 135.164 14.2957 135.119 14.4023C135.001 14.68 134.921 14.8878 134.88 15.0266C134.774 15.2862 134.707 15.5159 134.669 15.7438C134.627 15.9935 134.596 16.1913 134.575 16.3354C134.563 16.4276 134.547 16.6172 134.547 16.9811C134.547 17.0748 134.506 17.1641 134.435 17.225C134.363 17.2857 134.273 17.3124 134.176 17.2983C133.789 17.2372 133.266 17.1745 132.623 17.1118C131.986 17.0504 131.245 17.0194 130.421 17.0194H127.409L125.848 24.3649C127.169 24.3589 128.365 24.3226 129.409 24.2567C130.556 24.1847 131.686 24.0741 132.768 23.9286C132.878 23.9155 132.989 23.9578 133.06 24.0449C133.13 24.132 133.15 24.2496 133.113 24.3549C133.011 24.6394 132.94 24.8526 132.9 24.9946C132.732 25.4719 132.694 25.6202 132.685 25.6628C132.606 26.0382 132.566 26.4711 132.566 26.9515C132.566 27.129 132.423 27.2725 132.245 27.2725H120.261C120.164 27.2725 120.073 27.2286 120.012 27.1533C119.951 27.0782 119.927 26.9794 119.947 26.8848L124.508 5.4658C124.54 5.31759 124.671 5.21168 124.822 5.21168H136.806C136.911 5.21168 137.009 5.26245 137.069 5.34801C137.129 5.43325 137.143 5.54263 137.108 5.64071C137.006 5.92532 136.935 6.13842 136.894 6.28041C136.768 6.64211 136.687 6.90945 136.647 7.09405C136.607 7.28431 136.577 7.44946 136.557 7.58894C136.538 7.71995 136.529 7.9371 136.529 8.23737C136.529 8.33012 136.489 8.41851 136.419 8.47936C136.349 8.54046 136.259 8.56896 136.164 8.55516C135.124 8.41035 134.042 8.30008 132.947 8.22735C131.906 8.15932 130.679 8.12266 129.298 8.11862L128.017 14.2387H130.893C131.722 14.2387 132.36 14.223 132.787 14.192C133.222 14.1609 133.892 14.0826 134.78 13.9585C134.896 13.9391 135.009 13.9892 135.079 14.0814ZM156.752 5.31727C156.823 5.39654 156.851 5.50624 156.825 5.61003L156.763 5.86197C156.746 5.92686 156.711 5.98482 156.66 6.0284L150.338 11.4461L146.843 14.5872L152.619 26.5601C152.651 26.6243 152.659 26.6967 152.644 26.7666L152.55 27.2073C152.518 27.3552 152.388 27.4611 152.236 27.4611C151.89 27.4611 151.428 27.4288 150.864 27.3652C150.155 27.2844 149.961 27.2725 149.908 27.2725C149.584 27.2725 149.136 27.3038 148.576 27.3652C147.784 27.4511 147.593 27.4611 147.519 27.4611C147.397 27.4611 147.286 27.3922 147.232 27.2835L142.64 18.0721L140.693 27.2069C140.661 27.3552 140.531 27.4611 140.379 27.4611C140.032 27.4611 139.57 27.4288 139.006 27.3652C138.272 27.2816 138.094 27.2725 138.051 27.2725C137.727 27.2725 137.279 27.3038 136.718 27.3652C135.927 27.4511 135.735 27.4611 135.66 27.4611C135.564 27.4611 135.472 27.4176 135.411 27.3421C135.35 27.2668 135.326 27.1681 135.346 27.0734L139.938 5.4658C139.97 5.31759 140.101 5.21168 140.252 5.21168C140.576 5.21168 141.025 5.23857 141.588 5.29217C142.266 5.35552 142.502 5.369 142.58 5.369C142.861 5.369 143.284 5.34294 143.84 5.29191C144.422 5.238 144.791 5.21168 144.97 5.21168C145.067 5.21168 145.159 5.25552 145.219 5.33075C145.28 5.4063 145.304 5.50502 145.284 5.59963L143.391 14.4462C146.741 11.3151 149.945 8.24269 152.922 5.30411C152.988 5.23857 153.072 5.20603 153.173 5.21258C153.451 5.23421 153.754 5.26617 154.085 5.30879C154.393 5.34891 154.639 5.369 154.815 5.369C155.157 5.369 155.444 5.35392 155.67 5.32478C155.909 5.29345 156.175 5.25738 156.468 5.21508C156.573 5.19788 156.68 5.23832 156.752 5.31727ZM163.346 9.2767C163.172 8.9908 163.004 8.7044 162.844 8.41793C163.143 8.35457 163.376 8.22735 163.541 8.03556C163.704 7.84313 163.786 7.60049 163.786 7.30716C163.786 6.99251 163.685 6.74802 163.483 6.57375C163.28 6.3989 162.996 6.31173 162.634 6.31173H161.072V10.5134L161.481 10.4821L161.889 10.5134V8.54329H162.079L163.168 10.5134L163.64 10.4821L164.111 10.5134L163.88 10.1254C163.699 9.84649 163.521 9.5631 163.346 9.2767ZM161.89 8.34456V6.6991H162.214C162.431 6.6991 162.585 6.73422 162.676 6.80379C162.816 6.916 162.885 7.13603 162.885 7.46448C162.885 7.77855 162.807 8.00359 162.649 8.14025C162.493 8.27627 162.239 8.34456 161.89 8.34456ZM164.965 5.75073C164.256 5.0211 163.399 4.65626 162.392 4.65626C161.379 4.65626 160.519 5.0211 159.81 5.75073C159.101 6.48099 158.747 7.36294 158.747 8.39662C158.747 9.44468 159.103 10.3354 159.815 11.0688C160.528 11.8022 161.387 12.1689 162.392 12.1689C163.405 12.1689 164.265 11.8022 164.97 11.0688C165.676 10.3354 166.029 9.44468 166.029 8.39662C166.029 7.36294 165.674 6.48099 164.965 5.75073ZM164.53 10.6601C163.951 11.2819 163.238 11.5929 162.392 11.5929C161.541 11.5929 160.825 11.2819 160.245 10.6601C159.666 10.0383 159.375 9.28421 159.375 8.39662C159.375 7.51654 159.666 6.76933 160.245 6.15441C160.825 5.54013 161.541 5.23235 162.392 5.23235C163.238 5.23235 163.951 5.54013 164.53 6.15441C165.11 6.76933 165.4 7.51654 165.4 8.39662C165.4 9.28421 165.11 10.0383 164.53 10.6601Z" fill="black"/>
</svg>
