<svg width="34" height="34" viewBox="0 0 34 34" fill="none" xmlns="http://www.w3.org/2000/svg">
<path d="M17 34C26.3888 34 34 26.3888 34 17C34 7.61116 26.3888 0 17 0C7.61116 0 0 7.61116 0 17C0 26.3888 7.61116 34 17 34Z" fill="#81BC00"/>
<mask id="mask0_1023:6688" style="mask-type:alpha" maskUnits="userSpaceOnUse" x="3" y="6" width="28" height="22">
<path d="M3 6H31V28H3V6Z" fill="white"/>
</mask>
<g mask="url(#mask0_1023:6688)">
<path fill-rule="evenodd" clip-rule="evenodd" d="M30.3721 11.3235H29.0535C28.8024 10.1089 27.8395 9.16181 26.6047 8.91471V7.61771C26.6047 7.26765 26.3326 7 25.9768 7C25.621 7 25.3489 7.26765 25.3489 7.61771V8.91471C23.9256 9.20298 22.8372 10.4383 22.8372 11.9412C22.8372 12.5794 23.0256 13.1559 23.3605 13.65L22.586 14.4118C21.2256 13.2589 19.4465 12.5588 17.5 12.5588C15.5535 12.5588 13.7744 13.2589 12.414 14.4118L11.6395 13.65C11.9744 13.1559 12.1628 12.5794 12.1628 11.9412C12.1628 10.2324 10.7605 8.85291 9.0233 8.85291C8.37438 8.85291 7.78841 9.03822 7.28605 9.36766L6.3233 8.42066C6.07212 8.17356 5.67438 8.17356 5.44416 8.42066C5.19297 8.66768 5.19297 9.05884 5.44416 9.28532L6.40698 10.2324C6.19771 10.5618 6.0302 10.9324 5.94652 11.3235H4.62796C4.27214 11.3235 4 11.5912 4 11.9412C4 12.2912 4.27214 12.5588 4.62796 12.5588H5.94652C6.23955 13.9589 7.49531 15.0294 9.0233 15.0294C9.67214 15.0294 10.2582 14.8441 10.7605 14.5147L11.5349 15.2765C10.3628 16.6147 9.65118 18.3647 9.65118 20.2794C9.65118 24.5412 13.1675 28 17.5 28C21.8325 28 25.3489 24.5412 25.3489 20.2794C25.3489 18.3647 24.6372 16.6147 23.4652 15.2765L24.2396 14.5147C24.7419 14.8441 25.3279 15.0294 25.9768 15.0294C27.5047 15.0294 28.7605 13.9589 29.0535 12.5588H30.3721C30.7279 12.5588 31 12.2912 31 11.9412C31 11.5912 30.7279 11.3235 30.3721 11.3235ZM10.2791 12.5588H7.76746C7.41164 12.5588 7.1395 12.2912 7.1395 11.9412C7.1395 11.5912 7.41164 11.3235 7.76746 11.3235H10.2791C10.6349 11.3235 10.907 11.5912 10.907 11.9412C10.907 12.2912 10.6349 12.5588 10.2791 12.5588ZM22.8162 20.6706C22.6071 23.3471 20.221 25.5294 17.5 25.5294C14.7791 25.5294 12.393 23.3471 12.1837 20.6706C12.1628 20.3412 12.2674 19.9912 12.5186 19.7442C12.7488 19.4971 13.0838 19.353 13.4396 19.353H14.6954V20.2794C14.6954 20.6294 14.9674 20.8971 15.3232 20.8971H16.5791C16.9349 20.8971 17.207 20.6294 17.207 20.2794V19.353H21.6023C21.9581 19.353 22.2931 19.4971 22.5233 19.7442C22.7326 19.9912 22.8582 20.3412 22.8162 20.6706ZM27.2325 12.5588H26.6047V13.1765C26.6047 13.5264 26.3326 13.7942 25.9768 13.7942C25.621 13.7942 25.3489 13.5264 25.3489 13.1765V12.5588H24.7209C24.3651 12.5588 24.093 12.2912 24.093 11.9412C24.093 11.5912 24.3651 11.3235 24.7209 11.3235H25.3489V10.7059C25.3489 10.3559 25.621 10.0883 25.9768 10.0883C26.3326 10.0883 26.6047 10.3559 26.6047 10.7059V11.3235H27.2325C27.5883 11.3235 27.8604 11.5912 27.8604 11.9412C27.8604 12.2912 27.5883 12.5588 27.2325 12.5588Z" fill="white"/>
</g>
</svg>
