<svg width="16" height="15" viewBox="0 0 16 15" fill="none" xmlns="http://www.w3.org/2000/svg">
<path d="M0.5 1.66667H2.16667V0C1.25 0 0.5 0.75 0.5 1.66667ZM0.5 8.33333H2.16667V6.66667H0.5V8.33333ZM3.83333 15H5.5V13.3333H3.83333V15ZM0.5 5H2.16667V3.33333H0.5V5ZM8.83333 0H7.16667V1.66667H8.83333V0ZM13.8333 0V1.66667H15.5C15.5 0.75 14.75 0 13.8333 0ZM2.16667 15V13.3333H0.5C0.5 14.25 1.25 15 2.16667 15ZM0.5 11.6667H2.16667V10H0.5V11.6667ZM5.5 0H3.83333V1.66667H5.5V0ZM7.16667 15H8.83333V13.3333H7.16667V15ZM13.8333 8.33333H15.5V6.66667H13.8333V8.33333ZM13.8333 15C14.75 15 15.5 14.25 15.5 13.3333H13.8333V15ZM13.8333 5H15.5V3.33333H13.8333V5ZM13.8333 11.6667H15.5V10H13.8333V11.6667ZM10.5 15H12.1667V13.3333H10.5V15ZM10.5 1.66667H12.1667V0H10.5V1.66667ZM4.66667 11.6667H11.3333C11.7917 11.6667 12.1667 11.2917 12.1667 10.8333V4.16667C12.1667 3.70833 11.7917 3.33333 11.3333 3.33333H4.66667C4.20833 3.33333 3.83333 3.70833 3.83333 4.16667V10.8333C3.83333 11.2917 4.20833 11.6667 4.66667 11.6667ZM5.5 5H10.5V10H5.5V5Z" fill="#363636"/>
</svg>
