<svg width="18" height="18" viewBox="0 0 18 18" fill="none" xmlns="http://www.w3.org/2000/svg">
<path d="M17.7552 15.5622L14.2498 12.0574C14.0916 11.8992 13.8771 11.8113 13.6521 11.8113H13.079C14.0494 10.5704 14.626 9.00967 14.626 7.31179C14.6261 3.27274 11.3528 0 7.31304 0C3.2733 0 0 3.27274 0 7.31179C0 11.3508 3.2733 14.6236 7.31304 14.6236C9.01121 14.6236 10.5723 14.0471 11.8134 13.0768V13.6498C11.8134 13.8748 11.9013 14.0893 12.0595 14.2474L15.5648 17.7522C15.8953 18.0826 16.4297 18.0826 16.7567 17.7522L17.7517 16.7574C18.0822 16.4269 18.0822 15.8926 17.7552 15.5622ZM7.31304 11.8113C4.8273 11.8113 2.81272 9.80059 2.81272 7.31179C2.81272 4.82647 4.82381 2.81224 7.31304 2.81224C9.79877 2.81224 11.8134 4.82299 11.8134 7.31179C11.8134 9.7971 9.80226 11.8113 7.31304 11.8113Z" fill="#363636"/>
</svg>
