<svg width="17" height="18" viewBox="0 0 17 18" fill="none" xmlns="http://www.w3.org/2000/svg">
<path d="M8.625 9C11.1105 9 13.125 6.98554 13.125 4.5C13.125 2.01446 11.1105 0 8.625 0C6.13946 0 4.125 2.01446 4.125 4.5C4.125 6.98554 6.13946 9 8.625 9ZM11.775 10.125H11.1879C10.4074 10.4836 9.53906 10.6875 8.625 10.6875C7.71094 10.6875 6.84608 10.4836 6.0621 10.125H5.475C2.86643 10.125 0.75 12.2414 0.75 14.85V16.3125C0.75 17.2442 1.50585 18 2.4375 18H14.8125C15.7442 18 16.5 17.2442 16.5 16.3125V14.85C16.5 12.2414 14.3836 10.125 11.775 10.125Z" fill="#363636"/>
</svg>
