<svg width="34" height="34" viewBox="0 0 34 34" fill="none" xmlns="http://www.w3.org/2000/svg">
<path d="M17 34C26.3888 34 34 26.3888 34 17C34 7.61116 26.3888 0 17 0C7.61116 0 0 7.61116 0 17C0 26.3888 7.61116 34 17 34Z" fill="#FF0000"/>
<path d="M27.6976 11.5908C27.4408 10.6238 26.6842 9.86237 25.7236 9.6039C23.9823 9.13428 17 9.13428 17 9.13428C17 9.13428 10.0177 9.13428 8.27645 9.6039C7.31581 9.86237 6.55917 10.6238 6.30239 11.5908C5.83582 13.3433 5.83582 17 5.83582 17C5.83582 17 5.83582 20.6566 6.30239 22.4092C6.55917 23.376 7.31581 24.1376 8.27645 24.396C10.0177 24.8657 17 24.8657 17 24.8657C17 24.8657 23.9823 24.8657 25.7236 24.396C26.6842 24.1376 27.4408 23.3761 27.6976 22.4092C28.1642 20.6566 28.1642 17 28.1642 17C28.1642 17 28.1642 13.3433 27.6976 11.5908Z" fill="white"/>
<path d="M14.7164 20.32L20.5522 17.0001L14.7164 13.6801V20.32Z" fill="#FF0000"/>
</svg>
